<svg width="68" height="68" viewBox="0 0 68 68" fill="none" xmlns="http://www.w3.org/2000/svg">
<circle cx="34" cy="34" r="34" fill="white"/>
<g opacity="0.6">
<path d="M36.337 32.3246C36.1304 32.1181 35.8502 32.002 35.558 32.002C35.2658 32.002 34.9856 32.1181 34.779 32.3246L34 33.1025C33.5844 33.504 33.0277 33.7261 32.4499 33.7211C31.8721 33.716 31.3194 33.4843 30.9108 33.0757C30.5022 32.6671 30.2704 32.1144 30.2654 31.5366C30.2604 30.9588 30.4825 30.4021 30.8839 29.9865L37.0874 23.7809C38.5561 23.4468 40.0927 23.5843 41.4787 24.1738C42.8648 24.7632 44.0297 25.7747 44.8079 27.0643C45.5861 28.3539 45.9379 29.856 45.8133 31.357C45.6887 32.8581 45.094 34.2816 44.1139 35.4253L41.7912 37.7777L36.337 32.3246ZM24.2607 25.7003C25.4006 24.5598 26.8919 23.8373 28.4934 23.6497C30.095 23.4621 31.7129 23.8205 33.0854 24.6668L29.3248 28.4285C28.5103 29.2414 28.046 30.3405 28.0312 31.4912C28.0163 32.6418 28.452 33.7526 29.2452 34.5862C30.0385 35.4199 31.1262 35.9102 32.2762 35.9525C33.4261 35.9948 34.547 35.5857 35.3993 34.8126L35.558 34.6617L40.2332 39.3357L35.558 44.0109C35.1447 44.424 34.5843 44.6561 34 44.6561C33.4156 44.6561 32.8552 44.424 32.442 44.0109L24.2596 35.8285C22.9166 34.4854 22.1621 32.6638 22.1621 30.7644C22.1621 28.865 22.9177 27.0434 24.2607 25.7003Z" fill="#475569"/>
</g>
</svg>
