<svg width="36" height="36" viewBox="0 0 36 36" fill="none" xmlns="http://www.w3.org/2000/svg">
<g opacity="0.6">
<path d="M19.9742 16.3692C19.7996 16.1947 19.5629 16.0967 19.3161 16.0967C19.0693 16.0967 18.8326 16.1947 18.6581 16.3692L18 17.0263C17.6489 17.3654 17.1787 17.5531 16.6906 17.5488C16.2025 17.5446 15.7356 17.3488 15.3904 17.0037C15.0453 16.6585 14.8495 16.1916 14.8452 15.7035C14.841 15.2154 15.0286 14.7452 15.3677 14.3941L20.6081 9.15189C21.8487 8.8697 23.1468 8.98584 24.3177 9.48379C25.4885 9.98174 26.4726 10.8361 27.13 11.9255C27.7873 13.0149 28.0845 14.2838 27.9793 15.5518C27.874 16.8198 27.3717 18.0223 26.5437 18.9884L24.5816 20.9757L19.9742 16.3692ZM9.77279 10.7733C10.7357 9.80987 11.9955 9.19953 13.3484 9.04108C14.7012 8.88263 16.068 9.18535 17.2274 9.90024L14.0507 13.0779C13.3626 13.7646 12.9704 14.6931 12.9579 15.6651C12.9453 16.6371 13.3134 17.5755 13.9835 18.2797C14.6535 18.9839 15.5724 19.3981 16.5438 19.4339C17.5152 19.4696 18.4621 19.124 19.1821 18.4709L19.3161 18.3434L23.2655 22.2918L19.3161 26.2411C18.967 26.5901 18.4936 26.7862 18 26.7862C17.5064 26.7862 17.033 26.5901 16.6839 26.2411L9.77185 19.3291C8.63735 18.1945 8 16.6557 8 15.0512C8 13.4467 8.63828 11.9079 9.77279 10.7733Z" fill="#475569"/>
</g>
</svg>
