<svg width="43" height="43" viewBox="0 0 43 43" fill="none" xmlns="http://www.w3.org/2000/svg">
<g opacity="0.6">
<path d="M26.2871 20.9969C28.2589 20.9969 29.9554 19.2362 29.9554 16.9433C29.9554 14.6781 28.25 13 26.2871 13C24.3246 13 22.6188 14.7147 22.6188 16.9616C22.6188 19.2362 24.3152 20.9969 26.2871 20.9969ZM15.7312 21.208C17.4371 21.208 18.9232 19.667 18.9232 17.6768C18.9232 15.7054 17.4277 14.2469 15.7312 14.2469C14.0259 14.2469 12.5214 15.742 12.5308 17.6955C12.5308 19.667 14.0165 21.208 15.7317 21.208M10.6143 29.4893H17.5839C16.6304 28.1045 17.7951 25.3165 19.767 23.7942C18.7491 23.1156 17.4371 22.6112 15.7223 22.6112C11.5862 22.6107 9 25.6643 9 28.2049C9 29.0308 9.45848 29.4893 10.6143 29.4893ZM20.5187 29.4893H32.0464C33.4862 29.4893 34 29.0763 34 28.2692C34 25.9031 31.0375 22.6384 26.2781 22.6384C21.5277 22.6384 18.5652 25.9031 18.5652 28.2696C18.5652 29.0763 19.0786 29.4893 20.5187 29.4893Z" fill="#475569"/>
</g>
</svg>
