<svg width="34" height="34" viewBox="0 0 34 34" fill="none" xmlns="http://www.w3.org/2000/svg">
<g opacity="0.6">
<path d="M17.8945 9.69458L16.457 18.3218L15.0195 9.69458C14.985 9.48598 14.9964 9.27236 15.0527 9.06858C15.1091 8.86479 15.2091 8.67572 15.3459 8.51448C15.4827 8.35324 15.6529 8.2237 15.8448 8.13486C16.0366 8.04602 16.2456 8 16.457 8C16.6684 8 16.8773 8.04602 17.0692 8.13486C17.2611 8.2237 17.4313 8.35324 17.5681 8.51448C17.7048 8.67572 17.8049 8.86479 17.8613 9.06858C17.9176 9.27236 17.929 9.48598 17.8945 9.69458Z" stroke="#475569" stroke-width="3" stroke-linecap="round" stroke-linejoin="round"/>
<path d="M16.4568 25.7788C17.0904 25.7788 17.604 25.2652 17.604 24.6316C17.604 23.998 17.0904 23.4844 16.4568 23.4844C15.8232 23.4844 15.3096 23.998 15.3096 24.6316C15.3096 25.2652 15.8232 25.7788 16.4568 25.7788Z" stroke="#475569" stroke-width="2"/>
</g>
</svg>
